<?xml version="1.0" standalone="no"?>
<!DOCTYPE svg PUBLIC "-//W3C//DTD SVG 20010904//EN"
 "http://www.w3.org/TR/2001/REC-SVG-20010904/DTD/svg10.dtd">
<svg version="1.0" xmlns="http://www.w3.org/2000/svg"
 width="201.000000pt" height="251.000000pt" viewBox="0 0 201.000000 251.000000"
 preserveAspectRatio="xMidYMid meet">

<g transform="translate(0.000000,251.000000) scale(0.100000,-0.100000)"
fill="#000000" stroke="none">
<path d="M1080 2419 c-25 -6 -63 -8 -85 -6 -92 9 -295 -42 -423 -107 -123 -62
-178 -111 -219 -194 -34 -68 -37 -82 -45 -205 -13 -186 9 -311 93 -555 46
-132 83 -256 96 -321 l8 -44 47 84 c25 47 65 131 88 189 23 58 43 106 44 107
1 2 29 -22 62 -52 32 -31 82 -67 110 -81 50 -24 53 -25 89 -9 43 17 43 31 1
15 -58 -22 -152 54 -208 167 -26 53 -30 71 -26 120 9 116 64 176 139 154 23
-7 50 -26 66 -46 15 -19 30 -30 33 -24 4 6 28 1 60 -13 l53 -22 -7 -140 c-7
-159 -22 -255 -68 -436 -21 -87 -29 -135 -24 -155 5 -19 45 -66 112 -132 l104
-102 -20 -72 c-10 -39 -22 -106 -25 -148 l-5 -76 14 60 c15 69 50 161 71 189
14 19 18 18 132 -36 148 -71 209 -90 282 -90 59 0 137 26 172 58 15 13 15 19
-4 82 -16 54 -19 94 -18 204 0 96 -4 148 -14 178 -14 40 -14 41 12 51 24 9 25
12 20 61 -4 28 -13 61 -22 75 -20 30 -12 43 26 43 22 0 34 8 49 33 28 45 26
57 -22 134 -49 81 -88 162 -88 184 0 9 10 29 23 45 12 16 22 40 23 54 1 14
-18 95 -42 182 -24 86 -44 163 -44 172 0 8 16 46 36 83 40 77 52 139 34 172
-18 35 -123 97 -212 127 -144 48 -359 67 -478 43z m34 -60 c30 -11 65 -29 78
-40 l23 -19 -25 9 c-110 42 -171 70 -153 71 12 0 47 -9 77 -21z m186 -9 c53
-27 117 -105 108 -132 -3 -8 -11 0 -20 17 -22 42 -64 82 -123 117 -52 30 -27
29 35 -2z m144 9 c56 -20 116 -67 116 -90 0 -8 -7 -6 -20 6 -19 17 -19 17 -14
-36 l4 -54 -13 48 c-17 57 -37 81 -102 118 -59 34 -48 37 29 8z m256 -157 c-1
-15 -7 -38 -15 -52 l-15 -25 7 30 c3 16 6 42 6 57 0 15 4 25 9 22 4 -3 8 -17
8 -32z m-292 -132 c87 -15 214 -56 245 -81 16 -11 31 -38 37 -62 6 -23 24 -87
40 -141 34 -113 37 -147 14 -182 -28 -42 -13 -120 41 -219 25 -46 50 -87 55
-90 14 -9 12 -38 -4 -60 -13 -18 -15 -18 -49 -2 -22 11 -60 17 -100 17 -60 0
-66 2 -70 23 -3 20 -4 20 -12 4 -5 -13 -1 -25 14 -41 27 -29 27 -33 -9 -41
-16 -4 -40 -20 -54 -36 -22 -26 -66 -125 -66 -149 0 -6 -4 -10 -10 -10 -10 0
-14 13 -25 85 -5 29 -18 50 -49 80 -195 184 -205 196 -212 233 -8 42 11 225
29 280 10 30 27 47 92 89 75 50 114 94 115 134 0 21 -55 104 -98 145 -34 33
-34 34 -11 34 13 0 52 -5 87 -10z"/>
<path d="M1485 1664 c-33 -19 -51 -33 -40 -29 72 23 180 12 218 -22 14 -13 22
-14 42 -5 50 23 24 54 -63 76 -82 22 -89 21 -157 -20z"/>
<path d="M1550 1597 c-51 -14 -55 -23 -20 -45 18 -11 21 -12 13 -2 -19 21 -16
30 12 30 26 0 33 -18 15 -36 -7 -7 -3 -14 15 -22 21 -10 25 -9 25 5 0 9 12 30
27 45 25 27 26 28 6 28 -12 0 -27 2 -35 4 -7 2 -33 -1 -58 -7z"/>
<path d="M783 1628 c-11 -13 -24 -34 -28 -48 -5 -21 -3 -20 14 8 25 39 62 43
85 10 22 -31 19 -48 -14 -88 -17 -19 -30 -42 -30 -51 0 -40 83 -109 130 -109
24 0 27 31 4 50 -24 21 -45 81 -39 112 19 85 -71 171 -122 116z"/>
<path d="M806 1367 c7 -18 71 -60 85 -55 6 2 -12 18 -39 35 -28 17 -49 26 -46
20z"/>
<path d="M398 873 c-12 -14 -68 -115 -96 -174 -2 -4 21 -10 50 -14 124 -17
236 -94 519 -356 192 -177 359 -299 284 -207 -60 74 -104 138 -155 223 -134
226 -303 395 -483 486 -32 17 -60 36 -64 44 -7 20 -37 19 -55 -2z"/>
<path d="M231 594 c-29 -14 -52 -27 -50 -29 3 -2 47 -12 99 -23 147 -30 246
-83 525 -278 l80 -56 -123 121 c-133 130 -218 192 -335 246 -104 47 -131 49
-196 19z"/>
</g>
</svg>
